<svg width="100%" height="100%" id="svg" viewBox="0 0 1440 700" xmlns="http://www.w3.org/2000/svg" class="transition duration-300 ease-in-out delay-150"><path d="M 0,700 C 0,700 0,350 0,350 C 29.376367584673986,405.0134233972975 58.75273516934797,460.0268467945951 82,447 C 105.24726483065203,433.9731532054049 122.36542690728211,352.90603621891734 148,365 C 173.6345730927179,377.09396378108266 207.7855572015236,482.34900832973557 229,468 C 250.2144427984764,453.65099167026443 258.4923442866235,319.6979304621403 279,279 C 299.5076557133765,238.30206953785972 332.2450656519823,290.8592698217034 359,328 C 385.7549343480177,365.1407301782966 406.5273931054472,386.86499025104627 432,410 C 457.4726068945528,433.13500974895373 487.6453619262294,457.68076917411133 510,454 C 532.3546380737706,450.31923082588867 546.8911591896352,418.41193305250846 570,404 C 593.1088408103648,389.58806694749154 624.7900013152297,392.67149861585466 648,407 C 671.2099986847703,421.32850138414534 685.9488355494461,446.902072484073 709,410 C 732.0511644505539,373.097927515927 763.4146564869857,273.72021144785316 794,260 C 824.5853435130143,246.27978855214684 854.3925385026114,318.21708172451446 876,310 C 897.6074614973886,301.78291827548554 911.0151895025687,213.41146165408927 930,229 C 948.9848104974313,244.58853834591073 973.5467034871143,364.13707165912837 997,417 C 1020.4532965128857,469.86292834087163 1042.7979965489744,456.0402517093971 1072,433 C 1101.2020034510256,409.9597482906029 1137.2613103169874,377.701921503283 1162,386 C 1186.7386896830126,394.298078496717 1200.1567621830754,443.1520622774705 1219,434 C 1237.8432378169246,424.8479377225295 1262.1116409507106,357.6898293868349 1286,352 C 1309.8883590492894,346.3101706131651 1333.3966740140825,402.08862017519 1359,412 C 1384.6033259859175,421.91137982481 1412.3016629929589,385.955689912405 1440,350 C 1440,350 1440,700 1440,700 Z" stroke="none" stroke-width="0" fill="#2a2928ff" class="transition-all duration-300 ease-in-out delay-150 path-0" transform="rotate(-180 720 350)"></path></svg>